<svg width="32" height="36" viewBox="0 0 32 36" fill="none" xmlns="http://www.w3.org/2000/svg">
<rect width="32" height="36" fill="#E5E5E5"/>
<g id="UI Kit Elements">
<rect width="2400" height="12772" transform="translate(-966 -10206)" fill="#F8F8F8"/>
<g id="Icons&#38;Logo/Logo Drink2Go">
<rect x="-19.5" y="-131.5" width="209" height="187" rx="4.5" fill="#F8F8F8"/>
<g id="Variant=Icon">
<path id="2" fill-rule="evenodd" clip-rule="evenodd" d="M32 18C32 20.8737 31.4014 23.5901 30.3369 26H17C19.4627 22.2281 22 17.6606 22 13C22 7.00236 17.9385 1.95335 12.4158 0.453392C13.5681 0.156712 14.7678 0 16 0C24.8366 0 32 8.05888 32 18ZM18 13C18 8.02944 13.9706 4 9 4C2.34935 4 0 12.5071 0 18C0 27.9411 7.16344 36 16 36C20.7387 36 24.9962 33.6825 27.9259 30H9C9.35183 29.5514 9.72025 29.0891 10.0987 28.6142C13.6157 24.2012 18 18.6997 18 13Z" fill="#7859CF"/>
</g>
<rect x="-19.5" y="-131.5" width="209" height="187" rx="4.5" stroke="#7859CF" stroke-dasharray="10 5"/>
</g>
<g id="Icons&#38;Logo descriptions">
</g>
</g>
</svg>
